<svg width="512" height="512" viewBox="0 0 512 512" fill="none" xmlns="http://www.w3.org/2000/svg">
  <rect width="512" height="512" rx="96" fill="#D4AF37"/>
  <path d="M256 128C185.308 128 128 185.308 128 256C128 326.692 185.308 384 256 384C326.692 384 384 326.692 384 256C384 185.308 326.692 128 256 128Z" fill="#1E3A8A"/>
  <path d="M256 160C273.673 160 288 174.327 288 192C288 209.673 273.673 224 256 224C238.327 224 224 209.673 224 192C224 174.327 238.327 160 256 160Z" fill="#F8F4E9"/>
  <path d="M256 288C238.327 288 224 273.673 224 256C224 238.327 238.327 224 256 224C273.673 224 288 238.327 288 256C288 273.673 273.673 288 256 288Z" fill="#F8F4E9"/>
  <path d="M320 320C302.327 320 288 305.673 288 288C288 270.327 302.327 256 320 256C337.673 256 352 270.327 352 288C352 305.673 337.673 320 320 320Z" fill="#F8F4E9"/>
  <path d="M192 320C174.327 320 160 305.673 160 288C160 270.327 174.327 256 192 256C209.673 256 224 270.327 224 288C224 305.673 209.673 320 192 320Z" fill="#F8F4E9"/>
</svg>
